<?xml version="1.0" standalone="no"?><!DOCTYPE svg PUBLIC "-//W3C//DTD SVG 1.1//EN" "http://www.w3.org/Graphics/SVG/1.1/DTD/svg11.dtd"><svg t="1530039406940" class="icon" style="" viewBox="0 0 1024 1024" version="1.1" xmlns="http://www.w3.org/2000/svg" p-id="1639" xmlns:xlink="http://www.w3.org/1999/xlink" width="16" height="16"><defs><style type="text/css"></style></defs><path d="M551.858 26.057l123.57 261.714c6.558 13.829 19.099 23.314 33.596 25.6l276.25 41.943c36.588 5.6 51.315 52.686 24.737 79.657L810.158 638.742c-10.585 10.743-15.302 26.171-12.886 41.371l47.173 287.657c6.213 38.171-32.101 67.2-64.777 49.257L532.527 881.141c-13.001-7.2-28.534-7.2-41.535 0l-247.141 135.886c-32.791 18.057-71.105-11.086-64.777-49.257l47.173-287.657c2.531-15.2-2.301-30.629-12.886-41.371L13.508 434.971C-12.955 408 1.657 360.914 38.245 355.314l276.25-41.943c14.497-2.171 27.153-11.771 33.596-25.6l123.57-261.714c16.453-34.743 63.856-34.743 80.194 0z" fill="#FF3F3F" p-id="1640"></path></svg>